# xmcd CD database file
# Copyright (C) 1995 Ti Kan
#
# Track frame offsets:
#	150
#	13562
#	27890
#	41837
#
# Disc length: 754 seconds
#
# Revision: 1
# Processed by: cddbd v1.4b41PL1 Copyright (c) Steve Scherf et al.
# Submitted via: NotifyCDPlayer(CDDB) 1.05
#
DISCID=2702f004
DTITLE=Eric Clapton - Motherless Child
DYEAR=1900
DGENRE=
TTITLE0=Motherless Child
TTITLE1=Driftin'
TTITLE2=County Jail (Live)
TTITLE3=32-20 (Live)
EXTD=
EXTT0=
EXTT1=
EXTT2=
EXTT3=
PLAYORDER=
